<svg xmlns="http://www.w3.org/2000/svg" width="40" height="40" viewBox="0 0 40 40" fill="none">
  <defs>
    <radialGradient id="g" cx="50%" cy="50%" r="50%">
      <stop offset="0%" stop-color="#fff" stop-opacity="0.95"/>
      <stop offset="60%" stop-color="#fff" stop-opacity="0.3"/>
      <stop offset="100%" stop-color="#fff" stop-opacity="0"/>
    </radialGradient>
  </defs>
  <!-- Ambient halo -->
  <circle cx="20" cy="20" r="19" stroke="#fff" stroke-width="0.5" opacity="0.15" fill="none"/>
  <!-- Outer ring -->
  <circle cx="20" cy="20" r="18" stroke="#fff" stroke-width="0.75" opacity="0.6" fill="none"/>
  <!-- Inner ring (golden ratio) -->
  <circle cx="20" cy="20" r="11.1" stroke="#fff" stroke-width="1" opacity="0.7" fill="none"/>
  <!-- Center glow -->
  <circle cx="20" cy="20" r="4.5" fill="url(#g)"/>
  <!-- Chevron marks -->
  <path d="M-1.4,-1.5 L0,1.5 L1.4,-1.5" transform="translate(38,20) rotate(90)" stroke="#fff" stroke-width="0.8" stroke-linecap="round" stroke-linejoin="round" fill="none" opacity="0.85"/>
  <path d="M-1.4,-1.5 L0,1.5 L1.4,-1.5" transform="translate(29,4.41) rotate(150)" stroke="#fff" stroke-width="0.8" stroke-linecap="round" stroke-linejoin="round" fill="none" opacity="0.85"/>
  <path d="M-1.4,-1.5 L0,1.5 L1.4,-1.5" transform="translate(11,4.41) rotate(210)" stroke="#fff" stroke-width="0.8" stroke-linecap="round" stroke-linejoin="round" fill="none" opacity="0.85"/>
  <path d="M-1.4,-1.5 L0,1.5 L1.4,-1.5" transform="translate(2,20) rotate(270)" stroke="#fff" stroke-width="0.8" stroke-linecap="round" stroke-linejoin="round" fill="none" opacity="0.85"/>
  <path d="M-1.4,-1.5 L0,1.5 L1.4,-1.5" transform="translate(11,35.59) rotate(330)" stroke="#fff" stroke-width="0.8" stroke-linecap="round" stroke-linejoin="round" fill="none" opacity="0.85"/>
  <path d="M-1.4,-1.5 L0,1.5 L1.4,-1.5" transform="translate(29,35.59) rotate(30)" stroke="#fff" stroke-width="0.8" stroke-linecap="round" stroke-linejoin="round" fill="none" opacity="0.85"/>
</svg>
